<svg xmlns="http://www.w3.org/2000/svg" shape-rendering="crispEdges" viewBox="0 -.5 119 97">
  <path stroke="#ff6ab2" d="M19 0h1m-2 1h4m-5 1h8m-9 1h11M16 4h12M16 5h14M15 6h17M15 7h18M15 8h19m80 0h5M14 9h22m28 0h1m45 0h9M14 10h23m26 0h3m42 0h11M14 11h24m24 0h3m40 0h14M14 12h25m22 0h5m37 0h16M14 13h26m20 0h5m6 0h1m29 0h18M14 14h27m17 0h6m5 0h4m26 0h20M13 15h30m7 0h3m4 0h7m2 0h7m24 0h22M13 16h14m1 0h16m5 0h6m2 0h14m24 0h23M13 17h13m4 0h15m3 0h21m25 0h24M13 18h12m5 0h16m1 0h20m25 0h26M13 19h11m6 0h41m20 0h7m1 0h18M13 20h11m7 0h42m16 0h28M13 21h11m9 0h42m12 0h8m1 0h21M13 22h11m9 0h44m8 0h32M13 23h11m9 0h24m2 0h20m5 0h32M13 24h11m10 0h24m1 0h20m3 0h8m1 0h25M13 25h11m10 0h45m2 0h21m2 0h12M13 26h12m11 0h15m1 0h35m1 0h12m6 0h10M13 27h12m10 0h63m8 0h9M13 28h12m10 0h49m1 0h12m9 0h9M13 29h12m5 0h2m3 0h60m11 0h9M13 30h13m4 0h64m13 0h7M13 31h80m14 0h7M13 32h79m15 0h7M13 33h71m1 0h7m15 0h6M13 34h57m6 0h6m4 0h6m15 0h6M13 35h54m19 0h10m7 0h10M13 36h53m20 0h10m6 0h10M12 37h53m21 0h11m4 0h11M11 38h54m21 0h26M10 39h55m21 0h26M9 40h56m11 0h3m6 0h26M9 41h56m10 0h5m5 0h26M8 42h58m8 0h7m4 0h26M8 43h59m6 0h9m3 0h28M7 44h107M7 45h91m1 0h14M7 46h106M8 47h45m2 0h15m1 0h42M10 48h43m2 0h15m2 0h41M10 49h4m1 0h37m4 0h13m4 0h40M9 50h33m1 0h8m6 0h12m5 0h4m2 0h33M9 51h28m1 0h12m8 0h11m14 0h30M8 52h5m1 0h23m6 0h4m12 0h11m14 0h30M7 53h30m23 0h10m15 0h29M6 54h31m24 0h9m15 0h29M5 55h29m29 0h6m16 0h29M5 56h29m50 0h30M4 57h30m50 0h30M3 58h31m49 0h32M2 59h33m48 0h32M1 60h34m47 0h33M0 61h35m47 0h33M1 62h30m51 0h33M2 63h29m52 0h32M2 64h4m1 0h24m55 0h29M1 65h29m55 0h31M0 66h5m1 0h24m55 0h31M0 67h29m57 0h30M0 68h28m59 0h29M1 69h27m59 0h29M5 70h23m59 0h29M5 71h23m59 0h29M6 72h21m62 0h27M6 73h22m61 0h27M6 74h22m60 0h28M5 75h23m61 0h27M5 76h19m1 0h3m63 0h25M5 77h19m68 0h24M5 78h19m69 0h24M6 79h15m75 0h6m1 0h15M7 80h14m1 0h3m70 0h7m1 0h15M6 81h8m2 0h9m69 0h24M7 82h7m2 0h10m68 0h25M10 83h4m2 0h11m68 0h24M15 84h12m69 0h1m1 0h15m1 0h5M15 85h12m66 0h26M16 86h11m65 0h25M17 87h10m64 0h11m1 0h14M17 88h7m67 0h25m-99 1h6m69 0h4m2 0h17m-97 1h3m77 0h16m-15 1h13m-10 1h9m-9 1h5m1 0h3m-9 1h5m-4 1h4"/>
  <path stroke="#ffaec9" d="M27 16h1m-2 1h4m-5 1h5m-6 1h6m-6 1h7m-7 1h9m-9 1h9m-9 1h9m-9 1h10m-10 1h10m68 0h2m-79 1h10m65 0h6m-81 1h10m63 0h8m-81 1h10m62 0h9m-81 1h5m2 0h3m60 0h11m-80 1h4m64 0h13m-14 1h14m-15 1h15m-15 1h15m-15 1h15m-11 1h7m-7 1h6m-5 1h4"/>
  <path stroke="#000" d="M57 23h2m-1 1h1m20 1h1m-45 1h1m48 2h1M14 49h1m-2 3h1m64 0h2m-42 1h2m37 0h4m-44 1h4m36 0h4m-44 1h4m36 0h4m-44 1h4m36 0h4m-44 1h4m36 0h4m-44 1h4m36 0h4m-44 1h4m36 0h4m-43 1h2m38 0h2M59 70h9m-20 1h22m-23 1h23m-24 1h24m-23 1h13m4 0h5m26 5h1m-2 1h1m-80 1h1m77 0h1m-3 1h3m-4 1h5m-6 1h7m-9 1h6m-66 1h2m57 0h6m-65 1h3m54 0h7m-67 1h8m50 0h9m-65 1h8m45 0h10m-61 1h9m39 0h11m-57 1h11m31 0h14m-54 1h17m17 0h17m-49 1h47m-44 1h40m-37 1h34m-25 1h18"/>
  <path stroke="#ff3592" d="M84 33h1m-15 1h6m6 0h4m-19 1h19m-20 1h20m-21 1h21m-21 1h21m-21 1h21m-21 1h11m3 0h6m-20 1h10m5 0h5m-19 1h8m7 0h4m-18 1h6m9 0h3"/>
  <path stroke="#fff" d="M53 47h2m15 0h1m-18 1h2m15 0h2m-20 1h4m13 0h4m-31 1h1m8 0h6m12 0h5m4 0h2m-43 1h1m12 0h8m11 0h14m-46 1h6m4 0h12m11 0h8m2 0h4m-47 1h1m2 0h20m10 0h7m4 0h4m-44 1h20m9 0h7m4 0h4m-51 1h3m4 0h22m6 0h8m4 0h4m-51 1h3m4 0h36m4 0h3m-50 1h3m4 0h36m4 0h3m-50 1h3m4 0h36m4 0h2m-48 1h2m4 0h36m4 0h2m-48 1h3m2 0h38m2 0h2m-47 1h47m-51 1h51m-51 1h52m-52 1h55m-56 1h55m-55 1h55m-56 1h57m-58 1h59m-59 1h59m-59 1h31m9 0h19m-59 1h20m22 0h17m-60 1h20m23 0h19m-61 1h18m24 0h19m-61 1h19m13 0h4m5 0h19m-60 1h61m-65 1h1m3 0h63m-67 1h68m-68 1h69m-72 1h74m-74 1h1m3 0h69m-69 1h68m-67 1h65m-64 1h63m-63 1h62m-62 1h60m-58 1h57m-56 1h54m-52 1h50m-48 1h45m-42 1h39m-35 1h31m-23 1h17"/>
</svg>
