<svg id="Layer_2" data-name="Layer 2" xmlns="http://www.w3.org/2000/svg" xmlns:xlink="http://www.w3.org/1999/xlink" viewBox="0 0 1506 1506"><defs><style>.cls-1{fill:none;}.cls-2{fill:#fcf8f9;}.cls-3{fill:#16080d;}.cls-4{opacity:0.05;fill:url(#New_Pattern);}</style><pattern id="New_Pattern" data-name="New Pattern" width="188" height="126.01" patternTransform="translate(-5106.56 -5338.87) rotate(11) scale(1.47)" patternUnits="userSpaceOnUse" viewBox="0 0 188 126.01"><rect class="cls-1" width="188" height="126.01"/><path class="cls-2" d="M138.14,131.11c-1.2,3.36-3.9,5.34-15.48,5.34h-8.22c-5.52,0-7.74,4.38-7.74,8.34s2.28,8.34,7.74,8.34h8.28c14.76,0,33.72-3.6,33.72-25.26v-5.82c0-2.64-1.2-4.08-3.12-5.46a8.83,8.83,0,0,0,2.88-6.84c0-3.48-1.68-8.34-7.5-8.34H110.9c-5.88,0-7.5,4.86-7.5,8.34a8.12,8.12,0,0,0,2.7,6.42c-2.4,1.74-3,4.68-3,6.72,0,3.06,1.26,8.22,7.2,8.22ZM153,127.87c0,14-8.64,21.78-30.3,21.78h-8.28c-2.16,0-4.32-1.2-4.32-4.86s2.16-4.86,4.32-4.86h8.22c14,0,19.2-3.48,19.2-10.86v-.72c0-.48-.18-.72-.66-.72H110.3c-2.1,0-3.72-1.2-3.72-4.74S108.2,118,110.3,118H149a3.91,3.91,0,0,1,4,4Zm-.3-18.12c0,3.6-1.92,4.92-4,4.92H110.9c-2.22,0-4.08-1.32-4.08-4.92s1.86-4.92,4.08-4.92h37.8C150.8,104.83,152.72,106.09,152.72,109.75Z"/><path class="cls-2" d="M214.64,109.69a10.77,10.77,0,0,0,.54-3.24c0-5.22-4.68-6.78-9-6.78-3.36,0-7,.9-8.76,5.4-1.8,4.32-6.06,5.82-12.3,7.32l-18.9,4.74c-4.44,1.14-5.4,5.1-5.4,7.8,0,2.88,1.26,9,7.56,9a8,8,0,0,0,2.34-.36l12.54-3.24v16c0,5.16,4.08,6.78,8.52,6.78s8.52-1.62,8.52-6.78V125C206.48,122,212.3,117.19,214.64,109.69Zm-2.94-3.24a8.1,8.1,0,0,1-.36,2.22c-2.16,6.42-6.9,10.92-14.52,14v23.64c0,2.16-1.26,3.3-5,3.3s-5.1-1.14-5.1-3.3V125.89l-16.86,4.32a6,6,0,0,1-1.44.24c-1.68,0-4.14-1.14-4.14-5.52,0-2.34.9-4,2.82-4.44l18.9-4.74c8.88-2.22,12.9-4.68,14.64-9.42.78-2.16,2.34-3.18,5.58-3.18C210.62,103.15,211.7,104.77,211.7,106.45Z"/><path class="cls-2" d="M26.64,109.69a10.77,10.77,0,0,0,.54-3.24c0-5.22-4.68-6.78-9-6.78-3.36,0-7,.9-8.76,5.4-1.8,4.32-6.06,5.82-12.3,7.32l-18.9,4.74c-4.44,1.14-5.4,5.1-5.4,7.8,0,2.88,1.26,9,7.56,9a8,8,0,0,0,2.34-.36l12.54-3.24v16c0,5.16,4.08,6.78,8.52,6.78s8.52-1.62,8.52-6.78V125C18.48,122,24.3,117.19,26.64,109.69Zm-2.94-3.24a8.1,8.1,0,0,1-.36,2.22c-2.16,6.42-6.9,10.92-14.52,14v23.64c0,2.16-1.26,3.3-5,3.3s-5.1-1.14-5.1-3.3V125.89l-16.86,4.32a6,6,0,0,1-1.44.24c-1.68,0-4.14-1.14-4.14-5.52,0-2.34.9-4,2.82-4.44L-2,115.75c8.88-2.22,12.9-4.68,14.64-9.42.78-2.16,2.34-3.18,5.58-3.18C22.62,103.15,23.7,104.77,23.7,106.45Z"/><path class="cls-2" d="M82.92,114a4.74,4.74,0,0,0,2-4.2v-5.64c0-4.92-4.32-5.34-5.94-5.34a7.11,7.11,0,0,0-3.54.9,7.31,7.31,0,0,0-3.6-.9c-1.32,0-4.44.36-5.58,3.12H38c-5.64,0-7,6.24-7,8.34s1.32,8.4,7,8.4H66.12v2.64c0,8.16-3.06,11.46-7,13.2-4.62,2-11.1,2.1-18.48,2.1-6.18,0-7.26,5.52-7.26,8.4s1.26,8.28,7.26,8.28h5.1c20.34,0,37.2-7.74,37.2-32Zm-3.48,7.32c0,20.28-12.78,28.56-33.72,28.56h-5.1c-2.16,0-3.78-1.32-3.78-4.86s1.62-5,3.78-5H46c12.9,0,23.52-3.12,23.52-18.72v-5.4a.73.73,0,0,0-.72-.72H38c-1.74,0-3.54-1.92-3.54-4.92s1.8-4.92,3.54-4.92H66.36a.28.28,0,0,1,.3.3v4a4.23,4.23,0,0,0,4.44,4.2H79a.45.45,0,0,1,.42.42Zm-5.22-11.88c0,1.26-.54,1.8-2.4,1.8s-2.46-.48-2.46-1.8v-5.64c0-1.14.54-1.86,2.46-1.86s2.4.66,2.4,1.86Zm7.56,0c0,1.26-.54,1.8-2.46,1.8s-2.52-.48-2.52-1.8v-5.64c0-1.14.6-1.86,2.52-1.86s2.46.6,2.46,1.86Z"/><path class="cls-2" d="M44.14,68.11c-1.2,3.36-3.9,5.34-15.48,5.34H20.44c-5.52,0-7.74,4.38-7.74,8.34s2.28,8.34,7.74,8.34h8.28c14.76,0,33.72-3.6,33.72-25.26V59.05c0-2.64-1.2-4.08-3.12-5.46a8.83,8.83,0,0,0,2.88-6.84c0-3.48-1.68-8.34-7.5-8.34H16.9c-5.88,0-7.5,4.86-7.5,8.34a8.12,8.12,0,0,0,2.7,6.42c-2.4,1.74-3,4.68-3,6.72,0,3.06,1.26,8.22,7.2,8.22ZM59,64.87c0,14-8.64,21.78-30.3,21.78H20.44c-2.16,0-4.32-1.2-4.32-4.86s2.16-4.86,4.32-4.86h8.22c14,0,19.2-3.48,19.2-10.86v-.72c0-.48-.18-.72-.66-.72H16.3c-2.1,0-3.72-1.2-3.72-4.74S14.2,55,16.3,55H55a3.91,3.91,0,0,1,4,4Zm-.3-18.12c0,3.6-1.92,4.92-4,4.92H16.9c-2.22,0-4.08-1.32-4.08-4.92s1.86-4.92,4.08-4.92H54.7C56.8,41.83,58.72,43.09,58.72,46.75Z"/><path class="cls-2" d="M120.64,46.69a10.77,10.77,0,0,0,.54-3.24c0-5.22-4.68-6.78-9-6.78-3.36,0-7,.9-8.76,5.4-1.8,4.32-6.06,5.82-12.3,7.32l-18.9,4.74c-4.44,1.14-5.4,5.1-5.4,7.8,0,2.88,1.26,9,7.56,9a8,8,0,0,0,2.34-.36l12.54-3.24v16c0,5.16,4.08,6.78,8.52,6.78s8.52-1.62,8.52-6.78V62C112.48,59,118.3,54.19,120.64,46.69Zm-2.94-3.24a8.1,8.1,0,0,1-.36,2.22c-2.16,6.42-6.9,10.92-14.52,14V83.35c0,2.16-1.26,3.3-5,3.3s-5.1-1.14-5.1-3.3V62.89L75.82,67.21a6,6,0,0,1-1.44.24c-1.68,0-4.14-1.14-4.14-5.52,0-2.34.9-4,2.82-4.44L92,52.75c8.88-2.22,12.9-4.68,14.64-9.42.78-2.16,2.34-3.18,5.58-3.18C116.62,40.15,117.7,41.77,117.7,43.45Z"/><path class="cls-2" d="M176.92,51a4.74,4.74,0,0,0,2-4.2V41.11c0-4.92-4.32-5.34-5.94-5.34a7.11,7.11,0,0,0-3.54.9,7.31,7.31,0,0,0-3.6-.9c-1.32,0-4.44.36-5.58,3.12H132c-5.64,0-7,6.24-7,8.34s1.32,8.4,7,8.4h28.08v2.64c0,8.16-3.06,11.46-7,13.2-4.62,2-11.1,2.1-18.48,2.1-6.18,0-7.26,5.52-7.26,8.4s1.26,8.28,7.26,8.28h5.1c20.34,0,37.2-7.74,37.2-32Zm-3.48,7.32c0,20.28-12.78,28.56-33.72,28.56h-5.1c-2.16,0-3.78-1.32-3.78-4.86s1.62-5,3.78-5H140c12.9,0,23.52-3.12,23.52-18.72v-5.4a.73.73,0,0,0-.72-.72H132c-1.74,0-3.54-1.92-3.54-4.92s1.8-4.92,3.54-4.92h28.32a.28.28,0,0,1,.3.3v4a4.23,4.23,0,0,0,4.44,4.2H173a.45.45,0,0,1,.42.42Zm-5.22-11.88c0,1.26-.54,1.8-2.4,1.8s-2.46-.48-2.46-1.8V40.75c0-1.14.54-1.86,2.46-1.86s2.4.66,2.4,1.86Zm7.56,0c0,1.26-.54,1.8-2.46,1.8s-2.52-.48-2.52-1.8V40.75c0-1.14.6-1.86,2.52-1.86s2.46.6,2.46,1.86Z"/><path class="cls-2" d="M138.14,5.1c-1.2,3.36-3.9,5.34-15.48,5.34h-8.22c-5.52,0-7.74,4.38-7.74,8.34s2.28,8.34,7.74,8.34h8.28c14.76,0,33.72-3.6,33.72-25.26V-4c0-2.64-1.2-4.08-3.12-5.46a8.83,8.83,0,0,0,2.88-6.84c0-3.48-1.68-8.34-7.5-8.34H110.9c-5.88,0-7.5,4.86-7.5,8.34a8.12,8.12,0,0,0,2.7,6.42c-2.4,1.74-3,4.68-3,6.72,0,3.06,1.26,8.22,7.2,8.22ZM153,1.86c0,14-8.64,21.78-30.3,21.78h-8.28c-2.16,0-4.32-1.2-4.32-4.86s2.16-4.86,4.32-4.86h8.22c14,0,19.2-3.48,19.2-10.86V2.34c0-.48-.18-.72-.66-.72H110.3c-2.1,0-3.72-1.2-3.72-4.74S108.2-8,110.3-8H149a3.91,3.91,0,0,1,4,4Zm-.3-18.12c0,3.6-1.92,4.92-4,4.92H110.9c-2.22,0-4.08-1.32-4.08-4.92s1.86-4.92,4.08-4.92h37.8C150.8-21.18,152.72-19.92,152.72-16.26Z"/><path class="cls-2" d="M214.64-16.32a10.77,10.77,0,0,0,.54-3.24c0-5.22-4.68-6.78-9-6.78-3.36,0-7,.9-8.76,5.4-1.8,4.32-6.06,5.82-12.3,7.32l-18.9,4.74c-4.44,1.14-5.4,5.1-5.4,7.8,0,2.88,1.26,9,7.56,9a8,8,0,0,0,2.34-.36l12.54-3.24v16c0,5.16,4.08,6.78,8.52,6.78s8.52-1.62,8.52-6.78V-1C206.48-4,212.3-8.82,214.64-16.32Zm-2.94-3.24a8.1,8.1,0,0,1-.36,2.22c-2.16,6.42-6.9,10.92-14.52,14V20.34c0,2.16-1.26,3.3-5,3.3s-5.1-1.14-5.1-3.3V-.12L169.82,4.2a6,6,0,0,1-1.44.24c-1.68,0-4.14-1.14-4.14-5.52,0-2.34.9-4,2.82-4.44L186-10.26c8.88-2.22,12.9-4.68,14.64-9.42.78-2.16,2.34-3.18,5.58-3.18C210.62-22.86,211.7-21.24,211.7-19.56Z"/><path class="cls-2" d="M26.64-16.32a10.77,10.77,0,0,0,.54-3.24c0-5.22-4.68-6.78-9-6.78-3.36,0-7,.9-8.76,5.4-1.8,4.32-6.06,5.82-12.3,7.32l-18.9,4.74c-4.44,1.14-5.4,5.1-5.4,7.8,0,2.88,1.26,9,7.56,9a8,8,0,0,0,2.34-.36L-4.74,4.32v16c0,5.16,4.08,6.78,8.52,6.78s8.52-1.62,8.52-6.78V-1C18.48-4,24.3-8.82,26.64-16.32ZM23.7-19.56a8.1,8.1,0,0,1-.36,2.22c-2.16,6.42-6.9,10.92-14.52,14V20.34c0,2.16-1.26,3.3-5,3.3s-5.1-1.14-5.1-3.3V-.12L-18.18,4.2a6,6,0,0,1-1.44.24c-1.68,0-4.14-1.14-4.14-5.52,0-2.34.9-4,2.82-4.44L-2-10.26c8.88-2.22,12.9-4.68,14.64-9.42.78-2.16,2.34-3.18,5.58-3.18C22.62-22.86,23.7-21.24,23.7-19.56Z"/><path class="cls-2" d="M82.92-12.06a4.74,4.74,0,0,0,2-4.2V-21.9c0-4.92-4.32-5.34-5.94-5.34a7.11,7.11,0,0,0-3.54.9,7.31,7.31,0,0,0-3.6-.9c-1.32,0-4.44.36-5.58,3.12H38c-5.64,0-7,6.24-7,8.34s1.32,8.4,7,8.4H66.12v2.64c0,8.16-3.06,11.46-7,13.2-4.62,2-11.1,2.1-18.48,2.1-6.18,0-7.26,5.52-7.26,8.4s1.26,8.28,7.26,8.28h5.1c20.34,0,37.2-7.74,37.2-32ZM79.44-4.74c0,20.28-12.78,28.56-33.72,28.56h-5.1c-2.16,0-3.78-1.32-3.78-4.86s1.62-5,3.78-5H46c12.9,0,23.52-3.12,23.52-18.72v-5.4a.73.73,0,0,0-.72-.72H38c-1.74,0-3.54-1.92-3.54-4.92S36.3-20.7,38-20.7H66.36a.28.28,0,0,1,.3.3v4a4.23,4.23,0,0,0,4.44,4.2H79a.45.45,0,0,1,.42.42ZM74.22-16.62c0,1.26-.54,1.8-2.4,1.8s-2.46-.48-2.46-1.8v-5.64c0-1.14.54-1.86,2.46-1.86s2.4.66,2.4,1.86Zm7.56,0c0,1.26-.54,1.8-2.46,1.8s-2.52-.48-2.52-1.8v-5.64c0-1.14.6-1.86,2.52-1.86s2.46.6,2.46,1.86Z"/></pattern></defs><rect class="cls-3" x="241" y="241" width="1024" height="1024"/><rect class="cls-4" width="1506" height="1506"/></svg>